<svg width="42" height="43" viewBox="0 0 42 43" fill="none" xmlns="http://www.w3.org/2000/svg">
<path opacity="0.4" fill-rule="evenodd" clip-rule="evenodd" d="M21 42.5C9.40202 42.5 0 33.098 0 21.5C0 9.90202 9.40202 0.5 21 0.5C32.598 0.5 42 9.90202 42 21.5C42 33.098 32.598 42.5 21 42.5ZM30.7642 20.9214L22.8822 12.9036C22.568 12.5842 22.0592 12.5842 21.7449 12.9036C21.4307 13.2232 21.4307 13.7414 21.7449 14.0607L28.2542 20.6821H11.8043C11.3601 20.6821 11 21.0486 11 21.5002C11 21.9517 11.36 22.3182 11.8043 22.3182H28.254L21.7449 28.9394C21.4307 29.2588 21.4307 29.7769 21.7449 30.0963C21.9021 30.2561 22.1077 30.336 22.3136 30.336C22.5195 30.336 22.7251 30.2561 22.8822 30.0963L30.7642 22.0785C31.0784 21.7589 31.0784 21.2407 30.7642 20.9214Z" fill="#262B35"/>
</svg>
