<svg>

	<symbol id="logo" viewBox="0 0 167 42" fill="none" xmlns="http://www.w3.org/2000/svg">
		<path style="fill: var(--title-color, white)" d="M64.0703 17.6016H67.3125C67.2656 14.75 64.9219 12.7812 61.3594 12.7812C57.8516 12.7812 55.2813 14.7187 55.2969 17.625C55.2891 19.9844 56.9531 21.3359 59.6563 21.9844L61.3984 22.4219C63.1406 22.8437 64.1094 23.3437 64.1172 24.4219C64.1094 25.5937 63 26.3906 61.2812 26.3906C59.5234 26.3906 58.2578 25.5781 58.1484 23.9766H54.875C54.9609 27.4375 57.4375 29.2266 61.3203 29.2266C65.2266 29.2266 67.5234 27.3594 67.5312 24.4297C67.5234 21.7656 65.5156 20.3516 62.7344 19.7266L61.2969 19.3828C59.9062 19.0625 58.7422 18.5469 58.7656 17.3984C58.7656 16.3672 59.6797 15.6094 61.3359 15.6094C62.9531 15.6094 63.9453 16.3437 64.0703 17.6016ZM69.7441 29H73.0723V17H69.7441V29ZM71.416 15.4531C72.4082 15.4531 73.2207 14.6953 73.2207 13.7656C73.2207 12.8438 72.4082 12.0859 71.416 12.0859C70.4316 12.0859 69.6191 12.8438 69.6191 13.7656C69.6191 14.6953 70.4316 15.4531 71.416 15.4531ZM75.7383 33.5H79.0664V27.0781H79.168C79.6289 28.0781 80.6367 29.1953 82.5742 29.1953C85.3086 29.1953 87.4414 27.0312 87.4414 23.0156C87.4414 18.8906 85.2148 16.8438 82.582 16.8438C80.5742 16.8438 79.6133 18.0391 79.168 19.0156H79.0195V17H75.7383V33.5ZM78.9961 23C78.9961 20.8594 79.9023 19.4922 81.5195 19.4922C83.168 19.4922 84.043 20.9219 84.043 23C84.043 25.0937 83.1523 26.5469 81.5195 26.5469C79.918 26.5469 78.9961 25.1406 78.9961 23ZM92.9883 22.0625C92.9961 20.5156 93.9414 19.6094 95.3008 19.6094C96.6523 19.6094 97.4492 20.4766 97.4414 21.9531V29H100.77V21.3594C100.777 18.5469 99.1211 16.8438 96.6211 16.8438C94.8008 16.8438 93.582 17.7031 93.0352 19.1172H92.8945V13H89.6602V29H92.9883V22.0625ZM108.811 29.2344C112.451 29.2344 114.717 26.7422 114.717 23.0469C114.717 19.3281 112.451 16.8438 108.811 16.8438C105.17 16.8438 102.904 19.3281 102.904 23.0469C102.904 26.7422 105.17 29.2344 108.811 29.2344ZM108.826 26.6562C107.146 26.6562 106.287 25.1172 106.287 23.0234C106.287 20.9297 107.146 19.3828 108.826 19.3828C110.475 19.3828 111.334 20.9297 111.334 23.0234C111.334 25.1172 110.475 26.6562 108.826 26.6562ZM116.881 29H120.209V21.7969C120.209 20.4687 121.053 19.5859 122.162 19.5859C123.256 19.5859 123.99 20.3359 123.99 21.5156V29H127.217V21.6719C127.217 20.4297 127.928 19.5859 129.139 19.5859C130.201 19.5859 130.998 20.25 130.998 21.5859V29H134.318V20.9297C134.318 18.3281 132.771 16.8438 130.537 16.8438C128.779 16.8438 127.412 17.7422 126.92 19.1172H126.795C126.412 17.7266 125.186 16.8438 123.537 16.8438C121.92 16.8438 120.693 17.7031 120.193 19.1172H120.053V17H116.881V29ZM142.416 29.2344C145.385 29.2344 147.385 27.7891 147.854 25.5625L144.775 25.3594C144.439 26.2734 143.58 26.75 142.471 26.75C140.807 26.75 139.752 25.6484 139.752 23.8594V23.8516H147.924V22.9375C147.924 18.8594 145.455 16.8438 142.283 16.8438C138.752 16.8438 136.463 19.3516 136.463 23.0547C136.463 26.8594 138.721 29.2344 142.416 29.2344ZM139.752 21.7891C139.822 20.4219 140.861 19.3281 142.338 19.3281C143.783 19.3281 144.783 20.3594 144.791 21.7891H139.752Z" fill="white"/>
		<path d="M0 21C-3.63102e-07 25.1534 1.23163 29.2135 3.53914 32.667C5.84665 36.1204 9.1264 38.812 12.9636 40.4015C16.8009 41.9909 21.0233 42.4068 25.0969 41.5965C29.1705 40.7862 32.9123 38.7861 35.8492 35.8492C38.7861 32.9123 40.7862 29.1705 41.5965 25.0969C42.4068 21.0233 41.9909 16.8009 40.4015 12.9636C38.812 9.1264 36.1204 5.84665 32.667 3.53914C29.2135 1.23163 25.1534 3.13574e-07 21 0L21 21L0 21Z" fill="#1ECE7A"/>
		<path style="fill: var(--circle-color, white)" d="M31.5624 20.9999C31.5624 18.1986 30.4496 15.512 28.4687 13.5312C26.4879 11.5503 23.8013 10.4375 20.9999 10.4375C18.1986 10.4375 15.512 11.5503 13.5312 13.5312C11.5503 15.512 10.4375 18.1986 10.4375 20.9999L20.9999 20.9999H31.5624Z" fill="white"/>
	</symbol>


	<symbol id="logo-circle" x="16" y="16" width="61" height="61" viewBox="0 0 61 61" fill="none" xmlns="http://www.w3.org/2000/svg">
		<path d="M0.381348 30.4995C0.381347 36.4329 2.14082 42.2331 5.43726 47.1666C8.7337 52.1001 13.4191 55.9453 18.9008 58.2159C24.3826 60.4865 30.4146 61.0806 36.2341 59.9231C42.0535 58.7655 47.399 55.9083 51.5945 51.7127C55.7901 47.5171 58.6473 42.1717 59.8049 36.3522C60.9625 30.5328 60.3684 24.5008 58.0977 19.019C55.8271 13.5372 51.9819 8.85187 47.0485 5.55542C42.115 2.25898 36.3148 0.499512 30.3813 0.499512L30.3813 30.4995L0.381348 30.4995Z" fill="white"/>
		<path d="M45.4705 30.4995C45.4705 26.4976 43.8808 22.6596 41.051 19.8298C38.2212 17 34.3832 15.4103 30.3813 15.4103C26.3794 15.4103 22.5414 17 19.7116 19.8298C16.8819 22.6596 15.2921 26.4976 15.2921 30.4995L30.3813 30.4995H45.4705Z" fill="#2BB070"/>
	</symbol>


	<!-- Features -->
	<symbol id="alarm" width="55" height="55" viewBox="0 0 55 55" fill="none" xmlns="http://www.w3.org/2000/svg">
		<path style="fill: var(--bg-color, #F1C1C9)" opacity="0.6" d="M0 24C0 10.7452 10.7452 0 24 0H31C44.2548 0 55 10.7452 55 24V31C55 44.2548 44.2548 55 31 55H24C10.7452 55 0 44.2548 0 31V24Z" fill="#F1C1C9"/>
		<path style="fill: var(--path-color, #D62642)" fill-rule="evenodd" clip-rule="evenodd" d="M26.8359 12.1667C26.8359 11.7985 27.1333 11.5 27.5 11.5C27.8667 11.5 28.1641 11.7985 28.1641 12.1667V17.5C28.1641 17.8681 27.8667 18.1667 27.5 18.1667C27.1333 18.1667 26.8359 17.8681 26.8359 17.5V12.1667ZM20.4567 20.1526L16.7001 16.3813C16.4407 16.121 16.0203 16.1209 15.7609 16.3813C15.5016 16.6416 15.5016 17.0637 15.7609 17.3241L19.5175 21.0955C19.7769 21.3558 20.1973 21.3558 20.4567 21.0955C20.716 20.8351 20.716 20.413 20.4567 20.1526ZM38.3002 16.3813C38.5597 16.121 38.98 16.121 39.2394 16.3813C39.4988 16.6416 39.4988 17.0638 39.2394 17.3242L35.4828 21.0955C35.2233 21.3558 34.8031 21.3558 34.5436 21.0955C34.2843 20.8351 34.2843 20.413 34.5436 20.1526L38.3002 16.3813ZM37.3317 38.1667H38.125C39.2234 38.1667 40.1171 39.0639 40.1171 40.1667V42.8334C40.1171 43.2015 39.8198 43.5 39.4531 43.5H15.5469C15.1801 43.5 14.8828 43.2015 14.8828 42.8334V40.1667C14.8828 39.0639 15.7765 38.1667 16.875 38.1667H17.6683L19.8304 26.0009C20.2324 23.7784 22.1557 22.1667 24.4041 22.1667H30.5958C32.8438 22.1667 34.7674 23.7783 35.1698 25.9986L37.3317 38.1667ZM24.4041 23.5C22.7982 23.5 21.4243 24.6512 21.1375 26.2371L19.0174 38.1667H35.9826L33.8627 26.235C33.5757 24.6512 32.2016 23.5 30.5958 23.5H24.4041ZM16.2109 42.1667H38.789V40.1667C38.789 39.7991 38.4911 39.5 38.125 39.5H16.875C16.5088 39.5 16.2109 39.7991 16.2109 40.1667V42.1667ZM31.4844 28.1667C31.4844 27.7987 31.7819 27.5 32.1484 27.5C32.515 27.5 32.8125 27.7987 32.8125 28.1667C32.8125 28.5347 32.515 28.8333 32.1484 28.8333C31.7819 28.8333 31.4844 28.5347 31.4844 28.1667ZM34.2893 36.0475L33.3151 30.6642C33.2496 30.3018 32.9033 30.0613 32.5431 30.1274C32.1822 30.1932 31.9428 30.5402 32.0084 30.9025L32.9825 36.2858C33.0486 36.6509 33.3971 36.8882 33.7546 36.8226C34.1155 36.7568 34.3549 36.4097 34.2893 36.0475ZM38.125 27.5H43.8359C44.2026 27.5 44.5 27.7985 44.5 28.1667C44.5 28.5348 44.2026 28.8333 43.8359 28.8333H38.125C37.7583 28.8333 37.4609 28.5348 37.4609 28.1667C37.4609 27.7985 37.7583 27.5 38.125 27.5ZM16.875 27.5H11.1641C10.7973 27.5 10.5 27.7985 10.5 28.1667C10.5 28.5348 10.7973 28.8333 11.1641 28.8333H16.875C17.2417 28.8333 17.539 28.5348 17.539 28.1667C17.539 27.7985 17.2417 27.5 16.875 27.5Z" fill="#D62642"/>
	</symbol>

	<symbol id="diagnostic" width="55" height="55" viewBox="0 0 55 55" fill="none" xmlns="http://www.w3.org/2000/svg">
		<rect opacity="0.6" width="55" height="55" rx="24" fill="#C5D7F2"/>
		<path fill-rule="evenodd" clip-rule="evenodd" d="M41.0995 26.1101C42.8402 26.3585 44.2076 27.7103 44.4588 29.4311C44.7717 31.5745 43.2678 33.563 41.0995 33.8724C38.9313 34.1817 36.9199 32.6949 36.6069 30.5514C36.294 28.408 37.798 26.4195 39.9662 26.1101V25.0934C39.9662 22.8997 38.3138 21.1161 36.2829 21.1161C34.3098 21.1161 32.6563 22.8459 32.5997 24.9718V35.9845C32.5997 40.126 29.4224 43.5 25.5164 43.5C21.6105 43.5 18.4332 40.1299 18.4332 35.9845V35.0283C17.6116 35.0283 16.7332 34.4395 16.7332 32.7876V31.3787C13.0981 30.4617 10.5 27.3734 10.5 23.8694V22.7042H11.6333V15.4218C11.6371 14.0598 12.6314 12.8979 13.9895 12.6685C14.147 12.1878 14.5141 11.8021 14.9898 11.6174C15.8677 11.2764 16.859 11.7036 17.2039 12.5715C17.5488 13.4394 17.1167 14.4194 16.2388 14.7603C15.3608 15.1013 14.3695 14.6742 14.0246 13.8062C13.285 14.003 12.7699 14.6646 12.7666 15.4218V22.7042H14.4666V23.8884C14.5102 25.8354 15.8286 27.5285 17.7215 28.068C18.7354 28.386 19.8241 28.386 20.8381 28.068C22.7331 27.5303 24.0546 25.837 24.0998 23.8884V22.7042H25.2331L25.2076 15.4167C25.2017 14.6706 24.6988 14.0177 23.9729 13.8135C23.7864 14.2721 23.4041 14.6257 22.9287 14.7791C22.0409 15.0657 21.0863 14.5864 20.7965 13.7088C20.5067 12.8311 20.9915 11.8874 21.8792 11.601C22.767 11.3144 23.7216 11.7937 24.0114 12.6713C25.3548 12.9115 26.3344 14.0638 26.3426 15.4134L26.3664 22.7042H27.4997V23.8722C27.4997 27.3722 24.9033 30.4594 21.2665 31.3787V32.7876C21.2665 34.4395 20.3882 35.0283 19.5665 35.0283V35.9845C19.5665 39.5098 22.2355 42.3796 25.5164 42.3796C28.7974 42.3796 31.4663 39.5137 31.4663 35.9845V24.945L31.4992 24.9394H31.4663C31.544 22.2124 33.7035 19.994 36.2829 19.994C38.9389 19.994 41.0995 22.2818 41.0995 25.0917V26.1101ZM21.8332 13.181C21.8332 13.4904 22.0869 13.7412 22.3998 13.7412C22.7128 13.7412 22.9665 13.4904 22.9665 13.181C22.9665 12.8717 22.7128 12.6209 22.3998 12.6209C22.0869 12.6209 21.8332 12.8717 21.8332 13.181ZM16.1666 13.181C16.1666 12.8717 15.9129 12.6209 15.5999 12.6209C15.287 12.6209 15.0333 12.8717 15.0333 13.181C15.0333 13.4904 15.287 13.7412 15.5999 13.7412C15.9129 13.7412 16.1666 13.4904 16.1666 13.181ZM11.6333 23.8246V23.8694C11.6333 26.9857 14.0631 29.7278 17.4132 30.39C17.6718 30.4428 17.933 30.4818 18.1958 30.507C18.9941 30.5859 19.7998 30.5468 20.5865 30.3911C23.9366 29.7278 26.3664 26.9857 26.3664 23.8694V23.8246H25.2331V23.8884C25.1898 26.3241 23.5498 28.449 21.1849 29.1335C19.9463 29.5212 18.6167 29.5212 17.3781 29.1335C15.0143 28.4481 13.3758 26.3232 13.3333 23.8884V23.8246H11.6333ZM17.8666 32.7876C17.8666 33.1237 17.9232 33.9079 18.4332 33.9079H19.566C20.0759 33.9079 20.1326 33.1237 20.1326 32.7876V31.5988C20.1086 31.6019 20.084 31.6037 20.0595 31.6056C20.0384 31.6072 20.0173 31.6088 19.9966 31.6112C19.9568 31.6154 19.9162 31.6188 19.8764 31.6221C19.8578 31.6237 19.8395 31.6253 19.8215 31.6269C19.5552 31.6504 19.2855 31.6666 19.0135 31.6666H18.9851C18.7126 31.6661 18.4423 31.6504 18.1742 31.6269C18.16 31.6256 18.1458 31.6244 18.1316 31.6231C18.0892 31.6195 18.0467 31.6158 18.0042 31.6112C17.986 31.6094 17.9676 31.608 17.9492 31.6065C17.9215 31.6044 17.8938 31.6022 17.8666 31.5988V32.7876ZM37.6996 29.9866C37.6996 31.5335 38.9681 32.7876 40.5329 32.7876C42.0968 32.7857 43.3643 31.5328 43.3661 29.9866C43.3661 28.4397 42.0976 27.1857 40.5329 27.1857C38.9681 27.1857 37.6996 28.4397 37.6996 29.9866ZM38.833 29.9867C38.833 29.0585 39.5941 28.3061 40.533 28.3061C41.4719 28.3061 42.233 29.0585 42.233 29.9867C42.233 30.9148 41.4719 31.6672 40.533 31.6672C39.5941 31.6672 38.833 30.9148 38.833 29.9867ZM39.9663 29.9867C39.9663 30.296 40.22 30.5468 40.533 30.5468C40.8459 30.5468 41.0996 30.296 41.0996 29.9867C41.0996 29.6773 40.8459 29.4265 40.533 29.4265C40.22 29.4265 39.9663 29.6773 39.9663 29.9867Z" fill="#2682D6"/>
	</symbol>

	<symbol id="insurance" width="55" height="55" viewBox="0 0 55 55" fill="none" xmlns="http://www.w3.org/2000/svg">
		<rect style="fill: var(--bg-color, #C5F2DC)" opacity="0.6" width="55" height="55" rx="24" fill="#C5F2DC"/>
		<path style="fill: var(--path-color, #1ECE7A)" fill-rule="evenodd" clip-rule="evenodd" d="M36.7351 13.4899L27.7332 9.55034C27.5801 9.48355 27.4062 9.48355 27.2531 9.55034L18.2512 13.4899C18.0326 13.5853 17.8912 13.8011 17.8911 14.0395V23.4595C17.8944 25.5765 18.9119 27.5638 20.6277 28.8043L26.8492 33.2905C27.2335 33.5686 27.7528 33.5686 28.1371 33.2905L34.3586 28.8049C36.0744 27.5644 37.0919 25.5771 37.0952 23.4601V14.0395C37.0951 13.8011 36.9537 13.5853 36.7351 13.4899ZM35.8949 23.4601C35.8922 25.1917 35.0599 26.8171 33.6565 27.8317L27.4932 32.2759L21.3298 27.8317C19.9264 26.8171 19.0941 25.1917 19.0914 23.4601V14.4319L27.4932 10.7551L35.8949 14.4319V23.4601ZM27.2535 12.1706L20.6521 15.0602C20.4335 15.1556 20.2921 15.3713 20.292 15.6098V23.4608C20.2938 24.807 20.941 26.0707 22.0324 26.8592L27.1424 30.5444C27.3521 30.6955 27.635 30.6955 27.8446 30.5444L32.9547 26.8592C34.046 26.0707 34.6932 24.807 34.6951 23.4608V15.6098C34.6949 15.3713 34.5536 15.1556 34.335 15.0602L27.7336 12.1706C27.5805 12.1038 27.4065 12.1038 27.2535 12.1706ZM33.4948 16.0016V23.4608C33.493 24.4214 33.0311 25.323 32.2525 25.886L27.4935 29.318L22.7345 25.886C21.9559 25.323 21.4941 24.4214 21.4922 23.4608V16.0016L27.4935 13.3754L33.4948 16.0016ZM13.1635 26.3875L14.4616 29.4199C15.4734 28.7497 16.8044 28.8189 17.7413 29.5903C18.7506 30.518 19.9131 31.2638 21.177 31.7947C21.9718 32.0755 22.6671 32.5825 23.1772 33.2533C24.0474 34.377 24.5111 35.7623 24.4927 37.1833V38.2999C25.1556 38.2999 25.693 38.8372 25.693 39.4999V44.2999C25.693 44.9627 25.1556 45.4999 24.4927 45.4999H17.8913C17.2284 45.4999 16.6911 44.9627 16.6911 44.2999V39.4999C16.6917 39.1965 16.808 38.9047 17.0163 38.6839L13.3178 34.9855C12.7736 34.4424 12.3322 33.8054 12.0149 33.1051L9.66297 27.9325C9.38693 27.3074 9.46545 26.5824 9.86896 26.0308C10.2725 25.4792 10.9397 25.1848 11.6192 25.2583C12.2988 25.3319 12.8875 25.7624 13.1635 26.3875ZM17.8913 44.2999H24.4927V39.4999H17.8913V44.2999ZM23.2925 37.1833C23.3107 36.0348 22.94 34.9139 22.2404 34.0027C21.8732 33.5139 21.3718 33.1425 20.7971 32.9335C19.3868 32.3597 18.0902 31.5389 16.9683 30.5095C16.4071 30.0472 15.6008 30.0338 15.0245 30.4771C15.241 30.8007 15.4888 31.1022 15.7645 31.3771L18.5059 34.1185C18.6619 34.2692 18.7244 34.4923 18.6695 34.702C18.6146 34.9118 18.4507 35.0756 18.2409 35.1306C18.0311 35.1855 17.8079 35.1229 17.6573 34.9669L14.9159 32.2255C14.2727 31.5845 13.7589 30.8257 13.4024 29.9905L12.0599 26.8603C11.948 26.5978 11.69 26.4275 11.4045 26.4277C11.162 26.4278 10.9361 26.5511 10.8048 26.755C10.6735 26.9589 10.6548 27.2156 10.7552 27.4363L13.1071 32.6089C13.3653 33.1779 13.7241 33.6956 14.1663 34.1371L18.33 38.2999H23.2925V37.1833ZM22.6927 41.2999H22.0927C21.7613 41.2999 21.4927 41.5686 21.4927 41.8999C21.4927 42.2313 21.7613 42.4999 22.0927 42.4999H22.6927C23.024 42.4999 23.2927 42.2313 23.2927 41.8999C23.2927 41.5686 23.024 41.2999 22.6927 41.2999ZM45.3244 27.9325L42.9725 33.1051C42.6552 33.8053 42.2138 34.4424 41.6697 34.9855L37.9711 38.6839C38.1794 38.9046 38.2957 39.1964 38.2963 39.4999V44.2999C38.2963 44.9626 37.759 45.4999 37.0961 45.4999H30.4947C29.8318 45.4999 29.2944 44.9626 29.2944 44.2999V39.4999C29.2944 38.8371 29.8318 38.2999 30.4947 38.2999V37.1833C30.4759 35.7617 30.9396 34.3757 31.8102 33.2515C32.3203 32.5806 33.0156 32.0736 33.8104 31.7929C35.0744 31.2619 36.2368 30.5161 37.2461 29.5885C38.1824 28.8146 39.5141 28.7416 40.5294 29.4085L41.8245 26.3875C42.0933 25.7512 42.6844 25.3093 43.3708 25.2313C44.0573 25.1533 44.7325 25.4513 45.1373 26.011C45.5421 26.5707 45.6136 27.3052 45.3244 27.9325ZM30.4947 44.2999H37.0961V39.4999H30.4947V44.2999ZM31.6949 38.2999H36.6574L40.8187 34.1377C41.2609 33.6962 41.6197 33.1785 41.8779 32.6095L44.2298 27.4369C44.3302 27.2161 44.3115 26.9595 44.1802 26.7556C44.0489 26.5516 43.823 26.4284 43.5805 26.4283C43.2952 26.4281 43.0374 26.5981 42.9251 26.8603L41.5826 29.9911C41.2262 30.8262 40.7123 31.585 40.0691 32.2261L37.3277 34.9675C37.0923 35.1949 36.718 35.1916 36.4865 34.9602C36.255 34.7287 36.2517 34.3545 36.4792 34.1191L39.2205 31.3777C39.4979 31.1012 39.747 30.7977 39.9641 30.4717C39.3858 30.0279 38.5773 30.0436 38.0167 30.5095C36.8947 31.539 35.5979 32.3598 34.1873 32.9335C33.6137 33.1432 33.1134 33.5148 32.747 34.0033C32.0476 34.9143 31.6768 36.035 31.6949 37.1833V38.2999ZM32.8948 41.2999H32.2948C31.9635 41.2999 31.6948 41.5686 31.6948 41.8999C31.6948 42.2313 31.9635 42.4999 32.2948 42.4999H32.8948C33.2262 42.4999 33.4948 42.2313 33.4948 41.8999C33.4948 41.5686 33.2262 41.2999 32.8948 41.2999ZM23.4121 22.34C23.6109 22.0749 23.9871 22.0212 24.2522 22.22L26.145 23.6396L30.5944 16.967C30.7134 16.7887 30.9185 16.6874 31.1325 16.7012C31.3465 16.7151 31.5368 16.842 31.6318 17.0342C31.7268 17.2264 31.712 17.4547 31.593 17.633L26.792 24.833C26.7005 24.9702 26.5566 25.0637 26.3941 25.0916C26.3606 25.0971 26.3266 25.0999 26.2927 25.1C26.1628 25.1 26.0365 25.0579 25.9326 24.98L23.5321 23.18C23.2669 22.9812 23.2132 22.6051 23.4121 22.34Z" fill="#1ECE7A"/>
	</symbol>

	<symbol id="support" width="55" height="55" viewBox="0 0 55 55" fill="none" xmlns="http://www.w3.org/2000/svg">
		<rect opacity="0.6" x="0.00012207" width="55" height="55" rx="24" fill="#FAE3AF"/>
		<path fill-rule="evenodd" clip-rule="evenodd" d="M43.7956 9.5H35.6478C34.6852 9.5 33.9019 10.2815 33.9019 11.2419V15.8871C33.9019 16.8475 34.6852 17.629 35.6478 17.629H37.2023L36.6005 21.1309L42.2166 17.629H43.7956C44.7582 17.629 45.5415 16.8475 45.5415 15.8871V11.2419C45.5415 10.2815 44.7582 9.5 43.7956 9.5ZM44.3775 15.8871C44.3775 16.207 44.1162 16.4677 43.7956 16.4677H41.8826L38.1864 18.7723L38.5827 16.4677H35.6478C35.3271 16.4677 35.0658 16.207 35.0658 15.8871V11.2419C35.0658 10.922 35.3271 10.6613 35.6478 10.6613H43.7956C44.1162 10.6613 44.3775 10.922 44.3775 11.2419V15.8871ZM38.7826 40.8549L37.4353 36.8217C36.9644 35.4137 35.7632 34.3743 34.299 34.1084L30.4096 33.4023V33.1016C31.0864 32.7096 31.6754 32.1853 32.1445 31.5646H33.3195C34.2821 31.5646 35.0654 30.783 35.0654 29.8226V22.8549C35.0654 18.6928 31.6713 15.3065 27.4997 15.3065C23.328 15.3065 19.9339 18.6928 19.9339 22.8549V26.9194C19.9339 28.0389 20.7318 28.9755 21.7898 29.1938C22.1163 30.8626 23.1616 32.2747 24.5897 33.1016V33.4023L20.6998 34.1084C19.2361 34.3743 18.0343 35.4137 17.564 36.8217L17.3313 37.5191L15.349 35.5414C15.122 35.315 15.122 34.9463 15.349 34.7198L17.6479 32.4268L13.333 28.1219L10.7351 30.7139C9.96568 31.4816 9.54199 32.5023 9.54199 33.5881C9.54199 34.6739 9.96568 35.6941 10.7351 36.4617L18.6006 44.3092C19.3699 45.0768 20.3931 45.5001 21.4814 45.5001C22.5697 45.5001 23.5922 45.0768 24.3436 44.3266L27.1784 41.7352L26.2944 40.8549H38.7826ZM33.9015 29.8226C33.9015 30.1432 33.6402 30.4033 33.3195 30.4033H32.83C32.9988 30.0195 33.1269 29.6148 33.2095 29.1938C33.4586 29.1421 33.6879 29.0434 33.9015 28.9192V29.8226ZM33.3195 27.9193V25.9196C33.6658 26.121 33.9015 26.4915 33.9015 26.9194C33.9015 27.3474 33.6658 27.7178 33.3195 27.9193ZM21.6798 27.9193C21.3335 27.7178 21.0978 27.3474 21.0978 26.9194C21.0978 26.4915 21.3335 26.121 21.6798 25.9196V27.9193ZM21.6798 24.0162V24.6793C21.4726 24.7333 21.2783 24.8146 21.0978 24.9197V22.8549C21.0978 19.3333 23.9699 16.4678 27.4997 16.4678C31.0294 16.4678 33.9015 19.3333 33.9015 22.8549V24.9197C33.7211 24.8146 33.5267 24.7327 33.3195 24.6793V24.0162H32.7375C31.0166 24.0162 29.3987 23.3473 28.1812 22.1332L27.4997 21.4532L26.8182 22.1332C25.6006 23.3473 23.9827 24.0162 22.2618 24.0162H21.6798ZM22.8438 28.0807V25.1554C24.5915 25.0242 26.221 24.3048 27.4997 23.0918C28.7783 24.3048 30.4078 25.0248 32.1555 25.1554V28.0807C32.1555 28.9273 31.9239 29.7193 31.5258 30.4033H27.4997V31.5646H30.569C29.7484 32.2852 28.6758 32.7259 27.4997 32.7259C24.9325 32.7259 22.8438 30.6419 22.8438 28.0807ZM29.2456 33.6195V33.6468L27.4997 35.3887L25.7537 33.6468V33.6195C26.3054 33.7925 26.8915 33.8872 27.4997 33.8872C28.1078 33.8872 28.6939 33.7925 29.2456 33.6195ZM18.6675 37.1887C19.0033 36.183 19.8617 35.4404 20.9075 35.2499L24.9756 34.5125L27.4997 37.0308L30.0231 34.5131L34.0906 35.2505C35.1364 35.441 35.9949 36.183 36.3307 37.1893L37.1681 39.6936H25.1304L22.8636 37.432L20.3448 39.7052C20.1254 39.9253 19.7418 39.9253 19.5218 39.7052L18.2508 38.4371L18.6675 37.1887ZM13.3324 29.764L16.0014 32.4268L15.3694 33.0574L12.7004 30.3946L13.3324 29.764ZM23.5375 43.4893C22.9881 44.0363 22.2572 44.3388 21.4802 44.3388C20.7033 44.3388 19.9723 44.0363 19.4223 43.4881L11.5568 35.6413C11.0074 35.0932 10.7048 34.3639 10.7048 33.5887C10.7048 32.813 11.0074 32.0837 11.5568 31.5356L11.8769 31.2162L14.5459 33.879L14.5249 33.8999C13.8446 34.5793 13.8446 35.6843 14.5249 36.3636L18.6983 40.5274C19.0283 40.8561 19.4665 41.0378 19.9333 41.0378C20.4 41.0378 20.8383 40.8566 21.1467 40.5477L21.1904 40.5088L23.8716 43.1839L23.5375 43.4893ZM24.7306 42.3977L22.0552 39.7285L22.824 39.0352L25.4947 41.6997L24.7306 42.3977ZM36.23 11.8226H43.2138V12.9839H36.23V11.8226ZM40.8858 14.1451H36.23V15.3064H40.8858V14.1451ZM42.0493 14.1451H43.2133V15.3064H42.0493V14.1451ZM27.4998 11.2419C19.8956 11.2419 13.3453 16.4898 11.6425 23.81L10.5396 21.9758L9.5415 22.5732L11.5872 25.9741L14.9958 23.9331L14.397 22.9373L12.8198 23.8814C14.4692 17.1848 20.5049 12.4032 27.4998 12.4032C29.0286 12.4032 30.5371 12.6297 31.9833 13.0768L32.3279 11.9677C30.7699 11.4858 29.1456 11.2419 27.4998 11.2419ZM41.8497 20.3157L45.2583 22.3566L44.6595 23.3524L42.949 22.3288C43.5083 23.9894 43.7952 25.7238 43.7952 27.5C43.7952 31.2184 42.5044 34.8544 40.1602 37.7368L39.2563 37.0052C41.4324 34.329 42.6313 30.9531 42.6313 27.5C42.6313 25.8225 42.3572 24.1857 41.8211 22.6208L40.8027 24.3146L39.8046 23.7171L41.8497 20.3157Z" fill="#D69026"/>
	</symbol>



	<!-- Update -->	
	<symbol id="monitoring" width="60" height="60" viewBox="0 0 60 60" fill="none" xmlns="http://www.w3.org/2000/svg">
		<circle cx="30" cy="30" r="30" fill="white"/>
		<path fill-rule="evenodd" clip-rule="evenodd" d="M45.8906 17.625H44.2031V14.1094C44.2031 12.9463 43.2569 12 42.0938 12H17.9062C16.7431 12 15.7969 12.9463 15.7969 14.1094V17.625H14.1094C12.9463 17.625 12 18.5713 12 19.7344V39.9842C12 41.1473 12.9463 42.0936 14.1094 42.0936H26.4844V43.781H25.1467C23.9836 43.781 23.0374 44.7272 23.0374 45.8903V47.2969C23.0374 47.6852 23.3522 48 23.7405 48H36.2596C36.6479 48 36.9627 47.6852 36.9627 47.2969V45.8903C36.9627 44.7272 36.0164 43.781 34.8533 43.781H33.5156V42.0936H45.8906C47.0537 42.0936 48 41.1473 48 39.9842V19.7344C48 18.5713 47.0537 17.625 45.8906 17.625ZM45.8906 19.0312C46.2783 19.0312 46.5938 19.3467 46.5938 19.7344V35.9061H44.2031V19.0312H45.8906ZM17.9062 13.4062H42.0938C42.4815 13.4062 42.7969 13.7217 42.7969 14.1094V17.625H17.2031V14.1094C17.2031 13.7217 17.5185 13.4062 17.9062 13.4062ZM14.1094 19.0312H15.7969V24.304C15.7969 24.6923 16.1117 25.0071 16.5 25.0071C16.8883 25.0071 17.2031 24.6923 17.2031 24.304V19.0312H42.7969V35.9061H39.2109V33.589C39.2109 33.2007 38.8961 32.8859 38.5078 32.8859H37.593C37.4322 32.3323 37.2115 31.8 36.9332 31.2942L37.5805 30.6471C37.855 30.3725 37.855 29.9273 37.5805 29.6527L35.4458 27.518C35.1712 27.2435 34.726 27.2435 34.4513 27.518L33.8042 28.1652C33.2985 27.8869 32.7662 27.6663 32.2125 27.5055V26.5907C32.2125 26.2024 31.8977 25.8876 31.5094 25.8876H28.4905C28.1021 25.8876 27.7873 26.2024 27.7873 26.5907V27.5055C27.2337 27.6663 26.7014 27.8869 26.1957 28.1652L25.5485 27.518C25.2739 27.2435 24.8287 27.2435 24.5541 27.518L22.4194 29.6527C22.1448 29.9272 22.1448 30.3724 22.4194 30.6471L23.0666 31.2942C22.7883 31.7999 22.5677 32.3323 22.4069 32.8859H21.4922C21.1039 32.8859 20.7891 33.2007 20.7891 33.589V35.9061H17.2031V30.6321C17.2031 30.2438 16.8883 29.929 16.5 29.929C16.1117 29.929 15.7969 30.2438 15.7969 30.6321V35.9061H13.4062V19.7344C13.4062 19.3467 13.7217 19.0312 14.1094 19.0312ZM24.4485 30.6872L23.9111 30.1498L25.0514 29.0095L25.5888 29.5469C25.8234 29.7814 26.1901 29.8201 26.4686 29.6396C27.1339 29.2082 27.8636 28.9058 28.6372 28.7408C28.9618 28.6717 29.1937 28.385 29.1937 28.0532V27.2937H30.8064V28.0532C30.8064 28.385 31.0384 28.6717 31.3629 28.7408C32.1365 28.9058 32.8661 29.2081 33.5316 29.6396C33.81 29.8201 34.1767 29.7815 34.4113 29.5469L34.9487 29.0095L36.0891 30.1498L35.5517 30.6872C35.3171 30.9219 35.2784 31.2885 35.4589 31.567C35.8904 32.2324 36.1928 32.9621 36.3577 33.7356C36.4269 34.0601 36.7136 34.2922 37.0454 34.2922H37.8047V35.9061H33.4212C33.4838 35.6424 33.516 35.3715 33.516 35.0985C33.516 33.1597 31.9387 31.5825 30 31.5825C28.0613 31.5825 26.484 33.1598 26.484 35.0985C26.484 35.3715 26.5162 35.6424 26.5788 35.9061H22.1953V34.2922H22.9548C23.2866 34.2922 23.5732 34.0602 23.6424 33.7356C23.8074 32.962 24.1098 32.2324 24.5412 31.567C24.7218 31.2886 24.6831 30.9219 24.4485 30.6872ZM27.8902 35.0985C27.8902 33.9352 28.8366 32.9887 30 32.9887C31.1634 32.9887 32.1098 33.9352 32.1098 35.0985C32.1098 35.3762 32.0536 35.6505 31.947 35.9061H28.053C27.9464 35.6505 27.8902 35.3762 27.8902 35.0985ZM35.5564 45.8903V46.5938H24.4436V45.8903C24.4436 45.5026 24.759 45.1872 25.1467 45.1872H34.8533C35.241 45.1872 35.5564 45.5026 35.5564 45.8903ZM27.8906 43.781V42.0936H32.1094V43.781H27.8906ZM14.1094 40.6874C13.7217 40.6874 13.4062 40.3719 13.4062 39.9842V37.3124H46.5938V39.9842C46.5938 40.3719 46.2783 40.6874 45.8906 40.6874H14.1094ZM32.1094 16.2188H39.7031C40.0915 16.2188 40.4062 15.904 40.4062 15.5156C40.4062 15.1273 40.0915 14.8125 39.7031 14.8125H32.1094C31.721 14.8125 31.4062 15.1273 31.4062 15.5156C31.4062 15.904 31.721 16.2188 32.1094 16.2188ZM23.8877 16.0127C23.757 16.1435 23.5755 16.2188 23.3906 16.2188C23.2057 16.2188 23.0243 16.1435 22.8935 16.0127C22.7627 15.882 22.6875 15.7005 22.6875 15.5156C22.6875 15.3307 22.7627 15.1493 22.8935 15.0185C23.0243 14.8877 23.2057 14.8125 23.3906 14.8125C23.5755 14.8125 23.757 14.8877 23.8877 15.0185C24.0185 15.1493 24.0938 15.3307 24.0938 15.5156C24.0938 15.7005 24.0185 15.882 23.8877 16.0127ZM20.2969 16.2188C20.4818 16.2188 20.6632 16.1435 20.794 16.0127C20.9248 15.882 21 15.7005 21 15.5156C21 15.3307 20.9248 15.1493 20.794 15.0185C20.6632 14.8877 20.4818 14.8125 20.2969 14.8125C20.112 14.8125 19.9305 14.8877 19.7998 15.0185C19.669 15.1493 19.5938 15.3307 19.5938 15.5156C19.5938 15.7005 19.669 15.882 19.7998 16.0127C19.9305 16.1435 20.112 16.2188 20.2969 16.2188ZM26.9815 16.0127C26.8507 16.1435 26.6693 16.2188 26.4844 16.2188C26.2995 16.2188 26.118 16.1435 25.9873 16.0127C25.8565 15.882 25.7812 15.7005 25.7812 15.5156C25.7812 15.3307 25.8565 15.1493 25.9873 15.0185C26.118 14.8877 26.2995 14.8125 26.4844 14.8125C26.6693 14.8125 26.8507 14.8877 26.9815 15.0185C27.1123 15.1493 27.1875 15.3307 27.1875 15.5156C27.1875 15.7005 27.1123 15.882 26.9815 16.0127ZM19.875 22.4061H21.5483C21.9366 22.4061 22.2514 22.0913 22.2514 21.703C22.2514 21.3147 21.9366 20.9999 21.5483 20.9999H19.875C19.4867 20.9999 19.1719 21.3147 19.1719 21.703C19.1719 22.0913 19.4867 22.4061 19.875 22.4061ZM31.0924 22.4061H24.6421C24.2538 22.4061 23.939 22.0913 23.939 21.703C23.939 21.3147 24.2538 20.9999 24.6421 20.9999H31.0924C31.4808 20.9999 31.7955 21.3147 31.7955 21.703C31.7955 22.0913 31.4808 22.4061 31.0924 22.4061ZM19.875 25.781H23.9531C24.3415 25.781 24.6562 25.4662 24.6562 25.0779C24.6562 24.6895 24.3415 24.3748 23.9531 24.3748H19.875C19.4867 24.3748 19.1719 24.6895 19.1719 25.0779C19.1719 25.4662 19.4867 25.781 19.875 25.781ZM40.1249 22.4061H34.186C33.7977 22.4061 33.4829 22.0913 33.4829 21.703C33.4829 21.3147 33.7977 20.9999 34.186 20.9999H40.1249C40.5132 20.9999 40.828 21.3147 40.828 21.703C40.828 22.0913 40.5132 22.4061 40.1249 22.4061ZM40.1251 24.3748H35.313C34.9247 24.3748 34.6099 24.6895 34.6099 25.0779C34.6099 25.4662 34.9247 25.781 35.313 25.781H40.1251C40.5134 25.781 40.8282 25.4662 40.8282 25.0779C40.8282 24.6895 40.5134 24.3748 40.1251 24.3748ZM16.9971 27.9651C16.8663 28.0959 16.6849 28.1711 16.5 28.1711C16.3151 28.1711 16.1337 28.0959 16.0029 27.9651C15.8721 27.8343 15.7969 27.6529 15.7969 27.468C15.7969 27.2831 15.8721 27.1017 16.0029 26.9709C16.1337 26.8401 16.3151 26.7649 16.5 26.7649C16.6849 26.7649 16.8663 26.8401 16.9971 26.9709C17.1279 27.1017 17.2031 27.2831 17.2031 27.468C17.2031 27.6529 17.1279 27.8343 16.9971 27.9651Z" fill="#1C57C9"/>
	</symbol>

	<symbol id="maintenance" width="60" height="60" viewBox="0 0 60 60" fill="none" xmlns="http://www.w3.org/2000/svg">
		<circle cx="30" cy="30" r="30" fill="white"/>
		<path fill-rule="evenodd" clip-rule="evenodd" d="M47.6226 34.2418C47.3938 34.1509 47.1326 34.2077 46.9626 34.3857L44.4001 37.0793V21.0801H44.4031L46.8481 18.4401C47.073 18.1971 47.0582 17.8172 46.8148 17.5923L46.8143 17.5917L45.9343 16.7727L47.1571 15.4527C47.3817 15.2093 47.3666 14.8297 47.1233 14.6051L44.4833 12.1601C44.2402 11.9351 43.8606 11.9497 43.6357 12.193L39.3697 16.7993H18.6C18.5981 15.1431 17.2561 13.8012 15.5999 13.7992H15.0001C13.3439 13.8012 12.0019 15.1431 12 16.7993V42.5993C12 42.9306 12.2686 43.1992 12.6001 43.1992H21.6828L20.4227 44.7123C20.2109 44.9672 20.2455 45.3454 20.5001 45.5571L23.2668 47.8607C23.5214 48.0727 23.8998 48.0381 24.1119 47.7835L24.1122 47.7832L27.1831 44.0938C27.3951 43.8383 27.5316 43.5282 27.5767 43.1992H38.571L34.965 46.9859C34.7368 47.226 34.7464 47.6058 34.9864 47.8341C35.0979 47.9401 35.246 47.9994 35.4001 47.9991H47.3999C47.7314 47.9991 48 47.7305 48 47.3993V34.7993C48 34.5538 47.8506 34.333 47.6226 34.2418ZM45.5599 18.0592L44.4001 19.3138V18.4313L45.1199 17.6513L45.5599 18.0592ZM43.2001 17.9523V17.9609L38.1258 23.445L36.3636 21.8146L42.4763 15.2085L44.2386 16.8389L43.2072 17.9523H43.2001ZM36.9733 24.0124L35.5931 24.415L35.8878 23.0074L36.9733 24.0124ZM44.1067 13.4471L45.8681 15.0767L45.0529 15.9591L43.2913 14.3279L44.1067 13.4471ZM15.0001 14.9992H15.5999C16.5942 14.9992 17.4001 15.8051 17.4001 16.7993V39.6149C16.8837 39.2177 16.2512 39.0013 15.5999 38.9991H15.0001C14.3486 39.0013 13.7163 39.2177 13.2 39.6149V16.7993C13.2 15.8051 14.0058 14.9992 15.0001 14.9992ZM15.0001 40.1991H15.5999C16.5942 40.1991 17.4001 41.0052 17.4001 41.9992H13.2C13.2 41.0052 14.0058 40.1991 15.0001 40.1991ZM26.2614 43.3264L25.8774 43.7872L24.0331 42.2519L24.4165 41.7905C24.6285 41.5359 25.0067 41.5013 25.2613 41.7133L25.2616 41.7134L25.2619 41.7136L26.1839 42.4793C26.4388 42.6911 26.4737 43.0693 26.2619 43.3242L26.2614 43.3247V43.3264ZM23.5741 46.5544L21.7295 45.0191L23.2651 43.1739L25.1094 44.7095L23.5741 46.5544ZM27.3246 41.9992C27.2249 41.833 27.0988 41.6845 26.9513 41.5589L26.0293 40.7915C25.2652 40.1554 24.1303 40.259 23.4942 41.0231L22.6801 41.9992H18.6V17.9993H38.2595L35.0754 21.4402C35.0298 21.4916 34.9936 21.5509 34.9686 21.6149C34.9614 21.6322 34.9559 21.6484 34.9499 21.6665C34.9477 21.6734 34.945 21.6803 34.9422 21.6873C34.9378 21.6985 34.9334 21.7099 34.9307 21.7217L34.2144 25.1465C34.1468 25.4708 34.355 25.7886 34.6794 25.8562C34.7758 25.8762 34.8755 25.8724 34.9697 25.8449L38.3298 24.8658C38.3382 24.8631 38.3459 24.8593 38.3534 24.8555C38.36 24.8522 38.3666 24.849 38.3735 24.8465C38.3886 24.841 38.4043 24.8333 38.4205 24.8254C38.4878 24.7949 38.5487 24.7518 38.6004 24.6988L43.2001 19.7277V38.3391L39.7141 41.9992H27.3246ZM46.8 46.7991H36.7997L46.8 36.2992V46.7991ZM40.2459 45.2289C40.3387 45.453 40.5576 45.5991 40.8004 45.5991H45.0002C45.3317 45.5991 45.6003 45.3305 45.6003 44.9993V40.7992C45.6003 40.4677 45.3314 40.1993 45.0002 40.1993C44.8412 40.1993 44.6884 40.2625 44.5761 40.3751L40.376 44.5749C40.2044 44.7466 40.153 45.0048 40.2459 45.2289ZM44.4003 42.2475V44.3991H42.2487L44.4003 42.2475ZM34.2001 34.7994H38.3999C38.7314 34.7994 39 35.068 39 35.3992C39 35.7307 38.7314 35.9994 38.4001 35.9994H21.6001C21.2686 35.9994 21 35.7307 21 35.3992C21 35.068 21.2686 34.7994 21.6001 34.7994H25.7999V28.1993C25.8005 28.0403 25.8634 27.8876 25.9752 27.7744L29.5751 24.1745C29.8094 23.9402 30.1892 23.9402 30.4235 24.1745L34.0235 27.7744C34.1358 27.8873 34.1992 28.04 34.2001 28.1993V34.7994ZM32.1517 27.5992L30 25.4475L27.8483 27.5992H32.1517ZM33.0001 34.7994V28.7992H26.9999V34.7994H33.0001ZM29.3994 21.5994H30.5997V22.7993H29.3994V21.5994ZM30.5997 37.1992H29.3994V38.3992H30.5997V37.1992Z" fill="#1C57C9"/>
	</symbol>

	<symbol id="repair" width="60" height="60" viewBox="0 0 60 60" fill="none" xmlns="http://www.w3.org/2000/svg">
		<path d="M60 30C60 46.5685 46.5685 60 30 60C13.4315 60 0 46.5685 0 30C0 13.4315 13.4315 0 30 0C46.5685 0 60 13.4315 60 30Z" fill="white"/>
		<path fill-rule="evenodd" clip-rule="evenodd" d="M47.8651 33.7806L47.8693 33.7889L47.8731 33.7963C47.9569 34.0089 48 34.2352 48 34.4634V47.2194C48 47.5509 47.7314 47.8195 47.3999 47.8195H12.6001C12.2686 47.8195 12 47.5509 12 47.2194V34.4634C11.9995 34.0336 12.1533 33.6178 12.4334 33.2917L15.3843 29.8492C15.7268 29.4501 16.2262 29.2202 16.7521 29.2194H19.1999V22.0195C19.204 18.3761 22.1566 15.4236 25.7999 15.4195H38.1793L38.9091 13.0294C39.0865 12.4603 39.6523 12.1057 40.2415 12.1941L41.5845 12.4034C42.1734 12.4976 42.6052 13.0082 42.5999 13.6045L42.5681 16.1283C44.7947 17.2479 46.1999 19.5272 46.1999 22.0195V31.6973L47.5677 33.2928C47.6907 33.4395 47.791 33.604 47.8651 33.7806ZM36.0551 29.925L36.9197 33.4195L39.9525 33.4192C40.3673 32.3714 40.2511 31.2016 40.1223 29.9686L40.1132 29.8813C39.966 28.5355 39.7993 27.0065 40.4867 25.5703L40.0739 25.5282H40.0717L37.2971 25.097C37.4965 26.6357 36.8919 28.0102 36.3072 29.3394L36.307 29.34C36.2218 29.5347 36.1381 29.73 36.0551 29.925ZM23.4 36.4195V34.0196H18.6V36.4195C18.6011 37.4133 19.4064 38.2183 20.3999 38.2194H21.6001C22.5936 38.2183 23.3989 37.4133 23.4 36.4195ZM41.2508 29.2194H42.5999V22.0195C42.6027 21.2507 42.3066 20.5111 41.7746 19.956L41.3055 21.4919L40.8454 24.4565C41.1437 24.5535 41.3934 24.7617 41.5425 25.0377C41.7186 25.3629 41.7287 25.7526 41.57 26.0866C41.178 27.082 41.0676 28.1658 41.2508 29.2194ZM39.6633 24.2494L40.0313 21.8778L39.7748 21.8377L38.8404 21.6921L38.4727 24.0649L39.6633 24.2494ZM37.2831 23.9042L37.7426 20.9409L37.7671 19.0194H25.7999C24.144 19.0213 22.802 20.3633 22.8001 22.0195V29.2194H28.4614L27.0353 23.4535C26.8771 22.8091 27.2713 22.1582 27.9156 22L32.5741 20.8489C32.8754 20.7703 33.1959 20.8159 33.4637 20.975C33.7428 21.1378 33.9449 21.4056 34.0248 21.7187L35.578 27.9961C35.9919 27.1388 36.1705 26.1872 36.0958 25.2382C36.045 24.8724 36.1718 24.5043 36.4372 24.2472C36.6643 24.0281 36.9673 23.905 37.2831 23.9042ZM29.4284 33.1308L28.758 30.4194H27.1046L29.4284 33.1308ZM32.5425 33.2154C32.5573 33.2824 32.5604 33.3513 32.5516 33.4195H35.6835L32.8619 22.0137L28.1999 23.1659L28.92 26.0767L30.0868 25.7883C30.2958 25.734 30.518 25.7963 30.6685 25.9515C30.8188 26.1067 30.8742 26.3305 30.8133 26.5379C30.7526 26.7453 30.585 26.904 30.3746 26.9532L29.2084 27.2421L29.4966 28.4069L30.663 28.118C30.983 28.043 31.3038 28.2391 31.3826 28.5583C31.4615 28.8772 31.2692 29.2002 30.9511 29.2828L29.7844 29.5718L30.0722 30.7369L31.2393 30.4477C31.4477 30.3952 31.6686 30.4581 31.8177 30.6127C31.9671 30.7676 32.0223 30.9904 31.9624 31.1969C31.9023 31.4032 31.7364 31.5619 31.5277 31.6128L30.3604 31.9017L30.6485 33.0665L31.816 32.7776C31.9704 32.7391 32.1338 32.7638 32.2701 32.846C32.4063 32.9281 32.5043 33.061 32.5425 33.2154ZM43.2481 30.4194H41.3736C41.5115 31.4205 41.4585 32.4384 41.2176 33.4195H46.0955L43.7043 30.63C43.5895 30.4979 43.4234 30.4213 43.2481 30.4194ZM44.9999 30.2974V22.0195C44.9988 20.1828 44.0628 18.4731 42.5162 17.4827C42.5132 17.4962 42.5117 17.5101 42.5103 17.5239C42.5085 17.5415 42.5067 17.559 42.5016 17.5758L42.1588 18.6978C43.1968 19.4863 43.8043 20.7162 43.7999 22.0195V29.3216C44.115 29.418 44.3968 29.6001 44.6146 29.8475L44.9999 30.2974ZM41.4 13.5894L40.0569 13.3801L38.9948 16.8576L38.975 18.4141L38.9761 18.4195L38.975 18.4256L38.9486 20.4938L39.7844 20.6248L40.2917 20.7036L41.3541 17.2259V17.224L41.4 13.5894ZM25.7999 16.6194C22.8191 16.6227 20.4034 19.0386 20.3999 22.0195V32.8196H21.6001V22.0195C21.6026 19.7008 23.4815 17.8222 25.7999 17.8194H37.7824L37.7948 16.8427C37.7992 16.7675 37.8107 16.6925 37.8297 16.6194H25.7999ZM13.3436 34.0737C13.2505 34.1822 13.1997 34.3206 13.2 34.4634V46.6195H28.8V34.4634C28.8 34.3865 28.7855 34.3104 28.7574 34.2388C28.7303 34.1759 28.6937 34.1174 28.649 34.0652L25.7043 30.63C25.5895 30.4979 25.4234 30.4213 25.2481 30.4194H22.8001V32.8196H23.4C24.0624 32.8201 24.5994 33.3571 24.5999 34.0196V36.4195C24.598 38.0755 23.256 39.4174 21.6001 39.4194H20.3999C18.744 39.4174 17.402 38.0755 17.4001 36.4195V34.0196C17.4006 33.3571 17.9376 32.8201 18.6 32.8196H19.1999V30.4194H16.7521C16.5761 30.4213 16.4094 30.4985 16.2943 30.6314L13.3436 34.0737ZM30 34.6194V46.6195H46.8V34.6194H30ZM30.3691 24.2454C30.4053 24.0053 30.5825 23.8109 30.8181 23.7524C31.1398 23.6727 31.4649 23.8688 31.5446 24.1904C31.6031 24.4261 31.5138 24.6736 31.3186 24.8178C31.1233 24.9617 30.8604 24.974 30.6525 24.8488C30.4446 24.7233 30.3328 24.4851 30.3691 24.2454ZM33.0003 35.8193H31.8003C31.4688 35.8193 31.2002 36.088 31.2002 36.4195C31.2002 36.7507 31.4688 37.0193 31.8003 37.0193H33.0003C33.3315 37.0193 33.6002 36.7507 33.6002 36.4195C33.6002 36.088 33.3315 35.8193 33.0003 35.8193ZM35.3999 35.8193H44.9998C45.3313 35.8193 45.5999 36.088 45.5999 36.4195C45.5999 36.7507 45.3313 37.0193 44.9998 37.0193H35.3999C35.0684 37.0193 34.7998 36.7507 34.7998 36.4195C34.7998 36.088 35.0684 35.8193 35.3999 35.8193Z" fill="#1C57C9"/>
	</symbol>

	<symbol id="replace"  width="60" height="60" viewBox="0 0 60 60" fill="none" xmlns="http://www.w3.org/2000/svg">
		<circle cx="30" cy="30" r="30" fill="white"/>
		<path fill-rule="evenodd" clip-rule="evenodd" d="M34.8669 12.657C34.5923 12.3826 34.1471 12.3825 33.8725 12.657L32.8783 13.6512C32.6037 13.9258 32.6037 14.371 32.8783 14.6457C33.0156 14.783 33.1956 14.8516 33.3755 14.8516C33.5554 14.8516 33.7354 14.7829 33.8727 14.6457L34.8669 13.6514C35.1415 13.3769 35.1415 12.9317 34.8669 12.657ZM39.8385 12.6571C40.1134 12.3829 40.5585 12.3829 40.8334 12.6571C41.1077 12.932 41.1077 13.3771 40.8334 13.6513C40.5585 13.9262 40.1134 13.9262 39.8385 13.6513C39.5643 13.3771 39.5643 12.932 39.8385 12.6571ZM45.8051 13.6515C45.5302 13.3772 45.0851 13.3772 44.8102 13.6515C44.5359 13.9264 44.5359 14.3715 44.8102 14.6457C45.0851 14.9206 45.5302 14.9206 45.8051 14.6457C46.0794 14.3715 46.0794 13.9264 45.8051 13.6515ZM47.7937 17.629C47.5195 17.3548 47.0737 17.3548 46.7995 17.629C46.5245 17.9039 46.5245 18.349 46.7995 18.6232C47.0737 18.8981 47.5195 18.8981 47.7937 18.6232C48.0686 18.349 48.0686 17.9039 47.7937 17.629ZM16.2172 43.3316C15.9423 43.0574 15.4972 43.0574 15.2223 43.3316C14.948 43.6065 14.948 44.0516 15.2223 44.3265C15.4972 44.6007 15.9423 44.6007 16.2172 44.3265C16.4913 44.0516 16.4913 43.6065 16.2172 43.3316ZM20.9395 37.5224C21.2107 37.2444 21.6559 37.239 21.9338 37.5101C22.2116 37.7814 22.2172 38.2266 21.946 38.5044L18.2117 42.3315C18.074 42.4728 17.8913 42.5437 17.7084 42.5437C17.5314 42.5437 17.3542 42.4772 17.2174 42.3438C16.9395 42.0725 16.934 41.6274 17.2052 41.3495L20.9395 37.5224ZM44.8105 28.5674L42.3304 26.0874L42.3192 26.0762L39.3467 23.1036L39.3363 23.0932L36.3639 20.1209L36.3537 20.1106L33.3805 17.1375L33.3704 17.1274L30.8894 14.6464C30.7576 14.5145 30.5787 14.4404 30.3922 14.4404C30.2058 14.4404 30.0269 14.5145 29.8951 14.6464L21.9407 22.6005L20.9454 23.5952C19.5751 24.9663 19.5752 27.1967 20.9455 28.567L22.9348 30.5561C23.0675 30.6889 23.1406 30.8654 23.1406 31.0531C23.1406 31.2408 23.0675 31.4174 22.9348 31.5501L21.9538 32.531L13.4362 40.1593L13.4352 40.1602C13.363 40.224 13.2969 40.2858 13.2337 40.349C11.5888 41.9939 11.5888 44.6704 13.2337 46.3153C14.0293 47.1108 15.0887 47.549 16.2167 47.549C17.3448 47.549 18.4042 47.1108 19.1997 46.3154C19.264 46.2511 19.3274 46.1834 19.3934 46.1085L19.3938 46.1079L19.3948 46.1069L26.9289 37.4999L27.9066 36.5221C28.1807 36.248 28.6266 36.2481 28.9008 36.5221L30.8897 38.5103C31.5537 39.1747 32.4365 39.5407 33.3755 39.5407C34.3144 39.5407 35.1972 39.1747 35.8609 38.5106L36.8561 37.5163L44.8104 29.5618C45.085 29.2873 45.085 28.842 44.8105 28.5674ZM18.3368 45.1806C18.2912 45.2322 18.2483 45.2782 18.2055 45.3208C17.6755 45.8508 16.9693 46.1426 16.2168 46.1426C15.4643 46.1426 14.7581 45.8508 14.2282 45.3208C13.1316 44.2242 13.1316 42.44 14.228 41.3436C14.2717 41.3 14.3182 41.2566 14.3701 41.2107L14.3722 41.2087L14.3745 41.2068L22.4112 34.0093L25.453 37.0511L18.3368 45.1806ZM34.8666 37.5164C34.4683 37.915 33.9387 38.1345 33.3755 38.1345C32.8123 38.1345 32.2828 37.915 31.8842 37.5161L29.8951 35.5277C29.0728 34.7054 27.7347 34.7055 26.9123 35.5277L26.4153 36.0247L23.4321 33.0416L23.9291 32.5446C24.3275 32.1462 24.5469 31.6165 24.5469 31.0532C24.5469 30.4898 24.3274 29.9602 23.9291 29.5618L21.94 27.5726C21.1177 26.7505 21.1178 25.4121 21.9398 24.5896L22.4375 24.0922L35.3643 37.019L34.8666 37.5164ZM36.3589 36.0248L23.4321 23.0979L30.3921 16.1379L31.8839 17.6297L28.4037 21.1094C28.129 21.3839 28.129 21.8291 28.4036 22.1038C28.5409 22.2411 28.7208 22.3098 28.9008 22.3098C29.0808 22.3098 29.2607 22.2411 29.3979 22.1039L32.8783 18.6241L34.8673 20.6131L31.387 24.0928C31.1124 24.3673 31.1124 24.8125 31.3869 25.0871C31.5243 25.2245 31.7042 25.2932 31.8842 25.2932C32.0641 25.2932 32.2441 25.2245 32.3813 25.0872L35.8617 21.6075L37.85 23.5957L34.3697 27.0754C34.0951 27.3499 34.0951 27.7952 34.3697 28.0698C34.507 28.2071 34.6869 28.2758 34.8669 28.2758C35.0468 28.2758 35.2268 28.2071 35.364 28.0699L38.8444 24.5901L40.8334 26.5791L37.3531 30.0588C37.0785 30.3333 37.0785 30.7785 37.353 31.0532C37.4903 31.1905 37.6703 31.2592 37.8503 31.2592C38.0302 31.2592 38.2101 31.1905 38.3474 31.0532L41.8278 27.5735L43.319 29.0647L36.3589 36.0248ZM37.8501 14.6463C38.1248 14.3718 38.57 14.3718 38.8446 14.6463C39.1191 14.9209 39.1191 15.3662 38.8446 15.6407L36.8561 17.6292C36.7189 17.7664 36.5389 17.8351 36.3589 17.8351C36.179 17.8351 35.9991 17.7664 35.8617 17.6292C35.5871 17.3545 35.5871 16.9093 35.8617 16.6347L37.8501 14.6463ZM42.8216 15.6404C43.0963 15.3659 43.5415 15.3659 43.8161 15.6404C44.0906 15.9151 44.0906 16.3603 43.8161 16.6349L39.8385 20.6125C39.7012 20.7497 39.5212 20.8184 39.3413 20.8184C39.1614 20.8184 38.9814 20.7497 38.8441 20.6125C38.5695 20.3379 38.5695 19.8926 38.844 19.618L42.8216 15.6404ZM45.8053 19.6181C45.5307 19.3434 45.0856 19.3435 44.8109 19.618L41.8276 22.6006C41.5529 22.8752 41.5529 23.3204 41.8275 23.5951C41.9648 23.7324 42.1448 23.8011 42.3247 23.8011C42.5047 23.8011 42.6846 23.7324 42.8219 23.5952L45.8052 20.6126C46.0798 20.338 46.0798 19.8928 45.8053 19.6181ZM45.8051 24.5899C46.0797 24.3154 46.5249 24.3154 46.7995 24.5899C47.0741 24.8645 47.0741 25.3098 46.7995 25.5843L45.8053 26.5786C45.668 26.7158 45.488 26.7845 45.3081 26.7845C45.1282 26.7845 44.9482 26.7158 44.8109 26.5786C44.5363 26.3039 44.5363 25.8587 44.8109 25.5841L45.8051 24.5899Z" fill="#1C57C9"/>
	</symbol>


	<!-- Services -->

	<symbol id="tap" width="55" height="56" viewBox="0 0 55 56" fill="none" xmlns="http://www.w3.org/2000/svg">
		<rect opacity="0.6" y="0.5" width="55" height="55" rx="24" fill="#F1C1C9"/>
		<path fill-rule="evenodd" clip-rule="evenodd" d="M26.75 10.3216C26.75 9.89732 27.086 9.55298 27.5 9.55298C27.914 9.55298 28.25 9.89732 28.25 10.3216V13.3957C28.25 13.82 27.914 14.1643 27.5 14.1643C27.086 14.1643 26.75 13.82 26.75 13.3958V10.3216ZM36.5 21.8508H39.5C39.914 21.8508 40.2501 22.1951 40.2501 22.6193C40.2501 23.0436 39.914 23.3879 39.5 23.3879H36.5C36.086 23.3879 35.75 23.0437 35.75 22.6194C35.75 22.1952 36.086 21.8508 36.5 21.8508ZM18.5 21.8508H15.5C15.086 21.8508 14.75 22.1952 14.75 22.6194C14.75 23.0437 15.086 23.3879 15.5 23.3879H18.5C18.914 23.3879 19.2501 23.0436 19.2501 22.6193C19.2501 22.1951 18.914 21.8508 18.5 21.8508ZM35.4546 13.3804C35.7471 13.0806 36.2226 13.0806 36.5151 13.3804C36.8076 13.6802 36.8076 14.1676 36.5151 14.4674L34.3942 16.6415C34.2486 16.7907 34.0567 16.866 33.8646 16.866C33.6726 16.866 33.4807 16.7906 33.3336 16.6415C33.0411 16.3416 33.0411 15.8542 33.3336 15.5544L35.4546 13.3804ZM21.6666 15.5544L19.5455 13.3804C19.253 13.0806 18.7775 13.0806 18.485 13.3804C18.1925 13.6802 18.1925 14.1676 18.485 14.4674L20.6045 16.6415C20.7515 16.7906 20.9435 16.866 21.1355 16.866C21.3275 16.866 21.5195 16.7907 21.6665 16.6415C21.9591 16.3416 21.9591 15.8542 21.6666 15.5544ZM30.9995 31.0896C32.501 30.0658 34.523 30.4209 35.603 31.8981C36.2525 32.7851 36.1925 34.021 35.4619 34.8403L29.3915 41.6286C29.3215 41.7066 29.2495 41.7822 29.1756 41.8554C29.5049 41.9365 29.75 42.2406 29.75 42.603V45.6781C29.75 46.1025 29.414 46.447 29 46.447C28.5861 46.447 28.25 46.1026 28.25 45.6782V43.3719H19.25V45.6782C19.25 46.1026 18.914 46.447 18.5 46.447C18.086 46.447 17.75 46.1026 17.75 45.6782V42.603C17.75 42.1787 18.086 41.8342 18.5 41.8342H18.7617C17.2307 40.565 16.25 38.6247 16.25 36.4544V30.3056C16.25 29.0343 17.2595 27.9998 18.5 27.9998C18.7925 27.9998 19.0715 28.0582 19.3295 28.1611C19.589 27.1835 20.465 26.4625 21.5 26.4625C21.7925 26.4625 22.0715 26.521 22.3295 26.6239C22.5889 25.6463 23.465 24.9253 24.5 24.9253C24.7625 24.9253 25.016 24.9715 25.25 25.056V22.6195C25.25 21.3482 26.2595 20.3137 27.5 20.3137C28.7405 20.3137 29.75 21.3482 29.75 22.6195V31.9427L30.9995 31.0896ZM28.2845 40.588C27.5888 41.3674 26.6035 41.8187 25.5747 41.8342H22.9345C20.0696 41.7982 17.75 39.3989 17.75 36.4544V30.3056C17.75 29.8813 18.086 29.537 18.5 29.537C18.914 29.537 19.25 29.8813 19.25 30.3056V31.0742C19.25 31.4985 19.586 31.8428 20 31.8428C20.414 31.8428 20.75 31.4985 20.75 31.0742V28.7684C20.75 28.3441 21.086 27.9998 21.5 27.9998C21.914 27.9998 22.25 28.3441 22.25 28.7684V31.0742C22.25 31.4985 22.5861 31.8428 23.0001 31.8428C23.4141 31.8428 23.7501 31.4985 23.7501 31.0742V27.2312C23.7501 26.807 24.0861 26.4626 24.5001 26.4626C24.9141 26.4626 25.25 26.8069 25.25 27.2312V31.0741C25.25 31.4984 25.586 31.8428 26 31.8428C26.414 31.8428 26.75 31.4984 26.75 31.0741V22.6195C26.75 22.1953 27.0861 21.8509 27.5001 21.8509C27.9141 21.8509 28.2501 22.1953 28.2501 22.6195V33.38C28.2501 33.6644 28.4046 33.9226 28.6476 34.0564C28.8905 34.1901 29.1875 34.1747 29.417 34.0179L31.8321 32.367C32.6705 31.7967 33.7986 31.9934 34.403 32.8189C34.619 33.1141 34.5995 33.5276 34.3549 33.7997L28.2845 40.588ZM22.25 22.6193C22.25 19.6524 24.605 17.239 27.5 17.239C30.395 17.239 32.75 19.6524 32.75 22.6192C32.75 23.0435 32.414 23.3879 32 23.3879C31.586 23.3879 31.25 23.0435 31.25 22.6192C31.25 20.501 29.567 18.7762 27.5 18.7762C25.433 18.7762 23.75 20.501 23.75 22.6193C23.75 23.0436 23.414 23.3879 23 23.3879C22.586 23.3879 22.25 23.0436 22.25 22.6193Z" fill="#D62642"/>
	</symbol>

	<symbol id="manual" width="55" height="56" viewBox="0 0 55 56" fill="none" xmlns="http://www.w3.org/2000/svg">
		<rect opacity="0.6" y="0.5" width="55" height="55" rx="24" fill="#FAE3AF"/>
		<path d="M24.3359 36.719C24.3359 38.5069 25.7553 39.9614 27.5 39.9614C29.2447 39.9614 30.6641 38.5069 30.6641 36.719C30.6641 34.9311 29.2447 33.4766 27.5 33.4766C25.7553 33.4766 24.3359 34.9311 24.3359 36.719ZM27.5 35.6382C28.0816 35.6382 28.5547 36.123 28.5547 36.719C28.5547 37.315 28.0816 37.7998 27.5 37.7998C26.9184 37.7998 26.4453 37.315 26.4453 36.719C26.4453 36.123 26.9184 35.6382 27.5 35.6382Z" fill="#D69026"/>
		<path d="M10.5547 39.9616H18.3661L20.3342 43.455C20.474 43.7033 20.7044 43.8844 20.9746 43.9586C21.2446 44.0328 21.5326 43.9939 21.7749 43.8506L22.8406 43.22C23.4337 42.869 24.3359 43.3207 24.3359 44.0679V45.3659C24.3359 45.9628 24.8081 46.4468 25.3906 46.4468H29.6093C30.1918 46.4468 30.664 45.9628 30.664 45.3659V44.105C30.664 43.3271 31.5473 42.8579 32.2198 43.2558L33.2249 43.8506C33.729 44.149 34.3745 43.9719 34.6657 43.455L36.6339 39.9616H44.4453C45.0278 39.9616 45.5 39.4776 45.5 38.8807V10.6341C45.5 10.0372 45.0278 9.55322 44.4453 9.55322H31.7188C29.9955 9.55322 28.4629 10.4048 27.5 11.7187C26.5371 10.4048 25.0045 9.55322 23.2812 9.55322H10.5547C9.97222 9.55322 9.5 10.0372 9.5 10.6341V38.8807C9.5 39.4776 9.97222 39.9616 10.5547 39.9616ZM28.5547 14.9576C28.5547 13.1696 29.9741 11.715 31.7188 11.715H43.3906V37.7999H35.9375C35.8565 37.7999 35.778 37.8101 35.7022 37.8278L35.2839 37.5803C34.6459 37.2028 34.6696 36.2211 35.3144 35.8396L36.3892 35.2037C36.8933 34.9054 37.0665 34.2441 36.7753 33.7272L34.6659 29.983C34.3749 29.4664 33.7295 29.2888 33.2251 29.5874L32.2265 30.1782C31.5532 30.5767 30.6641 30.1163 30.6641 29.3403V28.0721C30.6641 27.4751 30.1919 26.9912 29.6094 26.9912H28.5548V14.9576H28.5547ZM28.5547 29.1529V29.3404C28.5547 31.7948 31.2138 33.2737 33.2812 32.0504L33.3664 31.9999L34.4211 33.872L34.2597 33.9675C32.2209 35.1737 32.1741 38.2364 34.2292 39.4524L34.4211 39.5659L33.3664 41.438L33.2746 41.3837C31.2159 40.1656 28.5547 41.6405 28.5547 44.105V44.285H26.4453V44.0679C26.4453 41.6839 23.8088 40.1509 21.7859 41.3479L21.6335 41.438L20.5789 39.566L20.83 39.4174C22.8909 38.198 22.7084 35.132 20.6803 33.932L20.5789 33.8721L21.6336 31.9999L21.76 32.0747C23.812 33.2889 26.4453 31.7501 26.4453 29.3403V29.1529H28.5547ZM11.6094 11.715H23.2812C25.0259 11.715 26.4453 13.1696 26.4453 14.9576V26.9912H25.3906C24.8082 26.9912 24.3359 27.4751 24.3359 28.0721V29.3404C24.3359 30.0861 23.4693 30.59 22.8148 30.2027L21.7749 29.5874C21.2708 29.2891 20.6254 29.4659 20.3342 29.983L18.2248 33.7272C17.9337 34.2438 18.1065 34.9053 18.6108 35.2037L19.6256 35.8041C20.2733 36.1873 20.3977 37.1769 19.7753 37.5453L19.2978 37.8278C19.222 37.8101 19.1435 37.7999 19.0625 37.7999H11.6094V11.715Z" fill="#D69026"/>
		<path d="M14.7734 18.2725H23.2812C23.8637 18.2725 24.3359 17.7885 24.3359 17.1917C24.3359 16.5948 23.8637 16.1108 23.2812 16.1108H14.7734C14.191 16.1108 13.7188 16.5948 13.7188 17.1917C13.7188 17.7885 14.191 18.2725 14.7734 18.2725Z" fill="#D69026"/>
		<path d="M24.3359 21.5146C24.3359 20.9176 23.8637 20.4336 23.2812 20.4336H14.7734C14.191 20.4336 13.7188 20.9176 13.7188 21.5146C13.7188 22.1117 14.191 22.5957 14.7734 22.5957H23.2812C23.8637 22.5957 24.3359 22.1117 24.3359 21.5146Z" fill="#D69026"/>
		<path d="M31.7188 22.5957H40.2266C40.809 22.5957 41.2812 22.1117 41.2812 21.5146C41.2812 20.9176 40.809 20.4336 40.2266 20.4336H31.7188C31.1363 20.4336 30.6641 20.9176 30.6641 21.5146C30.6641 22.1117 31.1363 22.5957 31.7188 22.5957Z" fill="#D69026"/>
		<path d="M31.7188 18.2725H40.2266C40.809 18.2725 41.2812 17.7885 41.2812 17.1917C41.2812 16.5948 40.809 16.1108 40.2266 16.1108H31.7188C31.1363 16.1108 30.6641 16.5948 30.6641 17.1917C30.6641 17.7885 31.1363 18.2725 31.7188 18.2725Z" fill="#D69026"/>
	</symbol>

	<symbol id="search" width="55" height="56" viewBox="0 0 55 56" fill="none" xmlns="http://www.w3.org/2000/svg">
		<rect opacity="0.6" y="0.5" width="55" height="55" rx="24" fill="#C5F2DC"/>
		<path fill-rule="evenodd" clip-rule="evenodd" d="M35.2907 31.9081L44.676 41.5265C45.2073 42.0706 45.5 42.7943 45.5 43.5644C45.5 44.3345 45.2073 45.0583 44.6758 45.6025C44.1447 46.1469 43.4385 46.4468 42.6875 46.4468C41.9365 46.4468 41.2303 46.1469 40.6989 45.6023L33.909 38.6438L33.9079 38.6426L31.3137 35.984C29.0107 37.5508 26.3438 38.3762 23.5625 38.3762C15.8084 38.3762 9.5 31.9111 9.5 23.9645C9.5 16.0178 15.8084 9.55273 23.5625 9.55273C31.3166 9.55273 37.625 16.0178 37.625 23.9645C37.625 26.8148 36.8196 29.5479 35.2907 31.9081ZM30.9829 34.4655L30.983 34.4654C32.0695 33.6572 33.0203 32.6827 33.809 31.5692C35.3855 29.3449 36.2188 26.7153 36.2188 23.9645C36.2188 16.8125 30.5412 10.9939 23.5625 10.9939C16.5838 10.9939 10.9062 16.8125 10.9062 23.9645C10.9062 31.1164 16.5838 36.935 23.5625 36.935C26.2467 36.935 28.8125 36.0811 30.9829 34.4655ZM34.4464 33.081C33.8511 33.8268 33.1859 34.5085 32.4582 35.1186L34.453 37.163C35.169 36.5414 35.8346 35.8592 36.4412 35.1254L34.4464 33.081ZM42.6875 45.0056C43.0628 45.0056 43.4159 44.8557 43.6816 44.5833C43.9474 44.311 44.0938 43.9494 44.0938 43.5644C44.0938 43.1795 43.9474 42.8178 43.6818 42.5459L37.4382 36.1472C36.8272 36.877 36.162 37.5586 35.45 38.1848L41.6934 44.5833C41.9591 44.8557 42.3122 45.0056 42.6875 45.0056ZM30.5938 23.9646C30.5938 23.5669 30.9088 23.2441 31.2969 23.2441C31.685 23.2441 32 23.5669 32 23.9646C32 24.3623 31.685 24.6851 31.2969 24.6851C30.9088 24.6851 30.5938 24.3623 30.5938 23.9646ZM23.5625 12.4351C17.3592 12.4351 12.3125 17.607 12.3125 23.9644C12.3125 30.3217 17.3592 35.4937 23.5625 35.4937C29.7658 35.4937 34.8125 30.3217 34.8125 23.9644C34.8125 17.607 29.7658 12.4351 23.5625 12.4351ZM23.5625 34.0525C18.1347 34.0525 13.7188 29.527 13.7188 23.9644C13.7188 18.4018 18.1347 13.8762 23.5625 13.8762C28.9903 13.8762 33.4062 18.4018 33.4062 23.9644C33.4062 29.527 28.9903 34.0525 23.5625 34.0525ZM28.3933 16.8781C29.7824 17.8753 30.8366 19.256 31.4421 20.8709C31.5814 21.2424 31.4004 21.6592 31.0379 21.802C30.955 21.8346 30.8697 21.8501 30.7859 21.8501C30.5033 21.8501 30.2368 21.6743 30.1294 21.3878C29.0912 18.6188 26.4523 16.7585 23.5625 16.7585C23.1742 16.7585 22.8594 16.4358 22.8594 16.0379C22.8594 15.64 23.1742 15.3174 23.5625 15.3174C25.3007 15.3174 26.9712 15.8571 28.3933 16.8781Z" fill="#1ECE7A"/>
	</symbol>

	<symbol id="optimize" width="55" height="56" viewBox="0 0 55 56" fill="none" xmlns="http://www.w3.org/2000/svg">
		<rect opacity="0.6" y="0.5" width="55" height="55" rx="24" fill="#C5D7F2"/>
		<path fill-rule="evenodd" clip-rule="evenodd" d="M44.7983 9.576C43.9172 9.5227 38.6753 9.34614 32.5844 12.2216C32.512 12.2555 32.4482 12.3035 32.3955 12.3618C28.2438 14.362 23.7528 17.7738 20.0938 23.5782L15.396 23.2572C15.1345 23.2307 14.8927 23.3967 14.7972 23.6463L11.1585 33.1765C11.0607 33.4323 11.1405 33.7231 11.3542 33.8897C11.461 33.9733 11.5893 34.0151 11.7171 34.0151C11.8437 34.0151 11.9703 33.9746 12.0771 33.8922L15.0973 31.5712L16.6777 31.895L19.0611 34.3376L18.4083 35.5396C17.6145 35.139 16.6941 35.0405 15.796 35.2736C14.5943 35.5866 13.6116 36.4265 13.1004 37.5794L9.55351 45.5769C9.44973 45.8105 9.49832 46.0854 9.67529 46.2661C9.7899 46.3842 9.94346 46.4463 10.0995 46.4463C10.1835 46.4463 10.2681 46.4278 10.3479 46.3909L18.1515 42.7553C19.2758 42.2321 20.0954 41.2249 20.4007 39.9933C20.6362 39.0436 20.526 38.0683 20.1022 37.2365L21.2155 36.5461L23.6986 39.0908L24.0143 40.7092L21.7495 43.8037C21.5887 44.0238 21.5893 44.3263 21.7519 44.5452C21.8677 44.7014 22.0458 44.7881 22.2294 44.7881C22.3026 44.7881 22.3764 44.774 22.4484 44.7469L31.7477 41.0178C31.9913 40.9201 32.1448 40.6717 32.1274 40.4043L31.8141 35.5879C37.4762 31.8389 40.8051 27.2378 42.7571 22.984C42.6743 23.062 42.5706 23.1157 42.4567 23.1368C42.4213 23.1429 42.3859 23.146 42.3505 23.146C42.1928 23.146 42.0398 23.0821 41.9264 22.9659L41.628 22.6601C39.4588 27.2718 35.2695 32.8486 27.1891 36.8263C26.2882 37.269 25.3566 37.6839 24.3981 38.069L22.3527 35.9728L27.2184 32.8248C27.3486 32.7401 27.4405 32.6089 27.4785 32.4598C27.4914 32.4094 27.4982 32.357 27.4982 32.3035V28.6144C27.4983 28.275 27.2295 27.9995 26.8983 27.9995H22.8558C22.7342 27.9995 22.618 28.0373 22.5206 28.1046C22.4422 28.1584 22.3759 28.2314 22.3287 28.3191L22.2507 28.4642L19.6673 33.2213L17.6736 31.1774C18.1167 30.0189 18.6004 28.8988 19.1212 27.8234C22.8672 20.1057 28.0272 15.87 32.7413 13.553L39.8877 11.1957C41.9375 10.8219 43.5167 10.7803 44.293 10.7915C44.3064 11.6533 44.2653 13.4778 43.8255 15.8234C44.2674 13.4732 44.3078 11.6498 44.2938 10.7896C43.5352 10.7765 42.0035 10.8104 40.0198 11.1522L44.7983 9.576ZM40.0198 11.1522C38.2553 11.4562 36.1332 12.0039 33.8792 12.979L33.9113 13.012C36.1046 12.0603 38.1628 11.5104 39.8877 11.1957L40.0198 11.1522ZM17.2576 37.6586L17.8233 36.6169C17.4922 36.4599 17.1295 36.3792 16.7584 36.3792C16.5376 36.3792 16.3139 36.4076 16.0912 36.4653C15.2447 36.6854 14.5523 37.2769 14.193 38.0873L11.3078 44.5932L17.6553 41.6363C18.4461 41.2673 19.0232 40.5584 19.238 39.6908C19.3898 39.0772 19.334 38.4507 19.088 37.9084L18.0771 38.4944C17.8431 38.6303 17.5485 38.5897 17.3577 38.3936C17.2047 38.2372 17.1485 38.012 17.2007 37.805C17.2133 37.7547 17.2321 37.7055 17.2576 37.6586ZM18.4649 26.4372C18.7585 25.8651 19.0625 25.306 19.3767 24.761L15.7542 24.5138L13.0442 31.6116L14.5915 30.4225C14.7283 30.318 14.9023 30.2775 15.0691 30.3113L16.5962 30.6241C17.1738 29.1246 17.7997 27.7315 18.4649 26.4372ZM20.2392 34.697L19.4055 36.2322L26.2981 31.9574V29.2297H23.2096L20.3514 34.5482C20.3213 34.6041 20.2833 34.6541 20.2392 34.697ZM24.9376 39.1731L25.2429 40.7375C25.2765 40.9091 25.2369 41.0874 25.1349 41.227L23.9746 42.8127L30.9005 40.0353L30.6587 36.3235C30.1317 36.6426 29.5912 36.9515 29.0382 37.2498C27.771 37.9346 26.4066 38.5788 24.9376 39.1731ZM35.9959 19.2921C33.9782 17.2243 30.696 17.2243 28.6783 19.2921C26.6606 21.3599 26.6606 24.7238 28.6783 26.7916C29.6868 27.8258 31.0121 28.3423 32.3368 28.3423C33.6621 28.3423 34.9868 27.8252 35.9959 26.7916C38.0136 24.7238 38.0136 21.3598 35.9959 19.2921ZM35.1476 25.9221C33.5979 27.5103 31.0763 27.5103 29.5267 25.9221C27.977 24.3339 27.977 21.7497 29.5267 20.1615C30.3012 19.3677 31.3193 18.9705 32.3369 18.9705C33.3544 18.9705 34.3726 19.3677 35.1477 20.1615C36.6973 21.7497 36.6973 24.3339 35.1476 25.9221ZM31.1437 24.2644C31.8019 24.9389 32.8722 24.9396 33.5297 24.2644C33.7637 24.024 34.144 24.024 34.378 24.2644C34.6126 24.5048 34.6126 24.8935 34.378 25.1339C33.8159 25.7106 33.0768 25.999 32.337 25.999C31.5979 25.999 30.8581 25.7106 30.2953 25.1339C29.1698 23.9804 29.1698 22.1031 30.2953 20.9496C31.4208 19.7961 33.2531 19.7961 34.378 20.9496C34.6126 21.19 34.6126 21.5786 34.378 21.819C34.1441 22.0594 33.7637 22.0594 33.5297 21.819C32.8715 21.1445 31.8012 21.1451 31.1437 21.819C30.4861 22.4936 30.4861 23.5899 31.1437 24.2644Z" fill="#2682D6"/>
	</symbol>


	<symbol id="energy" width="55" height="56" viewBox="0 0 55 56" fill="none" xmlns="http://www.w3.org/2000/svg">
		<rect opacity="0.6" y="0.5" width="55" height="55" rx="24" fill="#F1C1C9"/>
		<path fill-rule="evenodd" clip-rule="evenodd" d="M27.5 9.55322C22.1471 9.55322 17.091 12.1045 13.7188 16.2207V15.0297C13.7188 14.4322 13.247 13.9488 12.6641 13.9488C12.0811 13.9488 11.6094 14.4322 11.6094 15.0297V19.6213C11.6094 20.6528 12.9095 20.8005 12.6641 20.7022C12.6843 20.7022 12.7045 20.7012 12.7248 20.7003L12.7248 20.7003L12.729 20.7001L16.9477 20.432C17.5296 20.395 17.9715 19.882 17.9355 19.2867C17.8994 18.6913 17.3917 18.2427 16.8179 18.2744L14.6808 18.4106C17.641 14.2839 22.4305 11.715 27.5 11.715C36.2238 11.715 43.3906 19.0597 43.3906 28.0002C43.3906 28.5976 43.8624 29.0811 44.4453 29.0811C45.0283 29.0811 45.5 28.5976 45.5 28.0002C45.5 17.868 37.3866 9.55322 27.5 9.55322ZM34.8551 27.7523C34.7707 27.3871 34.5091 27.0936 34.162 26.9755L28.9874 25.2075L32.6624 17.6753C32.8931 17.2014 32.7551 16.6251 32.3359 16.3147C31.9146 16.0055 31.3378 16.0519 30.9732 16.4276L20.4263 27.2362C20.1678 27.5011 20.0617 27.8842 20.1452 28.2484C20.2296 28.6136 20.4912 28.9071 20.8383 29.0253L26.0129 30.7933L22.3379 38.3254C22.1072 38.7994 22.2452 39.3757 22.6645 39.686C23.0843 39.9943 23.6599 39.9492 24.0271 39.5731L34.574 28.7646C34.8325 28.4996 34.9386 28.1165 34.8551 27.7523ZM38.0523 35.568L42.271 35.2999C42.8351 35.2673 43.3906 35.7849 43.3906 36.3787V40.9703C43.3906 41.5678 42.9189 42.0512 42.3359 42.0512C41.753 42.0512 41.2812 41.5678 41.2812 40.9703V39.7793C37.909 43.8955 32.8529 46.4468 27.5 46.4468C17.6134 46.4468 9.5 38.132 9.5 27.9998C9.5 27.4024 9.97173 26.9189 10.5547 26.9189C11.1376 26.9189 11.6094 27.4024 11.6094 27.9998C11.6094 36.9403 18.7762 44.285 27.5 44.285C32.5695 44.285 37.359 41.7161 40.3192 37.5894L38.1821 37.7256C37.6197 37.7626 37.1006 37.3087 37.0645 36.7133C37.0285 36.118 37.4704 35.605 38.0523 35.568Z" fill="#D62642"/>
	</symbol>

	<symbol id="lifecycle" width="55" height="56" viewBox="0 0 55 56" fill="none" xmlns="http://www.w3.org/2000/svg">
		<rect opacity="0.6" y="0.5" width="55" height="55" rx="24" fill="#C5F2DC"/>
		<path d="M11.8541 26.0501C12.7925 20.5955 16.5498 16.1298 21.5229 14.2898L21.2894 14.7044C20.9638 15.282 21.1568 16.0206 21.7204 16.3543C21.9061 16.4641 22.1086 16.5164 22.3086 16.5164C22.7157 16.5164 23.1118 16.2999 23.3301 15.9126L24.9547 13.0301C25.1111 12.7526 25.1537 12.423 25.0727 12.1137C24.9918 11.8042 24.7945 11.5404 24.5238 11.3802L21.7103 9.71505C21.1462 9.38141 20.4258 9.57947 20.1004 10.1569C19.775 10.7345 19.968 11.4731 20.5316 11.8066L20.8251 11.9804C15.0186 14.0872 10.6256 19.2804 9.53327 25.6306C9.00471 28.6998 9.27386 31.8628 10.3115 34.778C10.4859 35.268 10.9375 35.572 11.4187 35.572C11.5528 35.572 11.6893 35.5484 11.8224 35.4986C12.4339 35.2699 12.7488 34.5767 12.5257 33.9502C11.6298 31.4335 11.3975 28.7019 11.8541 26.0501Z" fill="#1ECE7A"/>
		<path d="M39.6957 38.413C39.1973 37.9836 38.4541 38.0497 38.0354 38.5603C34.6073 42.74 29.2233 44.7487 23.9828 43.8007C21.4391 43.341 19.0656 42.2103 17.0904 40.5491H17.4696C18.1205 40.5491 18.648 40.0083 18.648 39.3413C18.648 38.6743 18.1205 38.1336 17.4696 38.1336H14.3323C14.0295 38.1043 13.7159 38.1941 13.4645 38.4102C13.2194 38.6209 13.0797 38.912 13.0498 39.2143C13.0497 39.2154 13.0495 39.2164 13.0494 39.2175C13.0494 39.2178 13.0494 39.2181 13.0494 39.2185C13.0461 39.2531 13.0445 39.2879 13.0442 39.3227C13.044 39.3288 13.0432 39.3346 13.0432 39.3407L13.042 42.6693C13.0417 43.3363 13.5691 43.8772 14.2199 43.8775H14.2204C14.8711 43.8775 15.3985 43.3371 15.3988 42.6703L15.399 42.2496C17.7236 44.264 20.5448 45.632 23.5735 46.1794C24.5674 46.3591 25.5656 46.447 26.5579 46.447C31.6205 46.447 36.5219 44.1595 39.8395 40.1146C40.2584 39.6041 40.194 38.8421 39.6957 38.413Z" fill="#1ECE7A"/>
		<path d="M45.5731 32.2585C45.2479 31.6809 44.5268 31.483 43.9634 31.8165L43.5758 32.0458C43.5918 31.9604 43.6107 31.8756 43.6253 31.7901C44.428 27.1235 43.4097 22.4164 40.7578 18.5352C38.1059 14.6541 34.1379 12.0639 29.5849 11.2419C28.9439 11.1263 28.3326 11.5649 28.22 12.2217C28.107 12.8784 28.535 13.5048 29.1759 13.6206C33.1089 14.3306 36.5367 16.5681 38.8274 19.9208C41.1135 23.2665 41.9939 27.3232 41.3085 31.3461L41.1358 31.0397C40.8104 30.4622 40.0897 30.264 39.5261 30.5974C38.9623 30.9307 38.7692 31.6693 39.0945 32.247L40.7185 35.1307C40.8748 35.4081 41.1322 35.6105 41.4342 35.6934C41.5346 35.7209 41.637 35.7346 41.7392 35.7346C41.9442 35.7346 42.1477 35.6797 42.3284 35.5728L45.1418 33.9082C45.7054 33.5746 45.8985 32.836 45.5731 32.2585Z" fill="#1ECE7A"/>
	</symbol>


	<!-- Footer -->

	<symbol id="face-book" viewBox="0 0 26 27" fill="none" xmlns="http://www.w3.org/2000/svg">
		<path d="M24.5643 0.762695H1.4344C0.642368 0.763082 0.000289971 1.38892 0.000488327 2.16064V24.6916C0.000885039 25.4631 0.64336 26.0886 1.43559 26.0884H24.5643C25.3567 26.0886 25.9992 25.4629 25.9994 24.691C25.9994 24.6908 25.9994 24.6906 25.9994 24.6904V2.15948C25.999 1.38795 25.3565 0.762502 24.5643 0.762695Z" fill="#4267B2"/>
		<path d="M17.9512 26.0894V16.2952H21.3407L21.8485 12.4616H17.9512V10.02C17.9512 8.91265 18.2668 8.1581 19.8969 8.1581H21.9628V4.73861C21.6033 4.69204 20.3702 4.58789 18.9353 4.58789C15.9393 4.58789 13.8889 6.36865 13.8889 9.64033V12.4616H10.5121V16.2952H13.8889V26.0894H17.9512Z" fill="white"/>
	</symbol>

	<symbol id="twitter" viewBox="0 0 30 24" fill="none" xmlns="http://www.w3.org/2000/svg">
		<path d="M9.43475 23.9774C20.7561 23.9774 26.9472 14.9834 26.9472 7.18456C26.9472 6.92911 26.9417 6.67473 26.9298 6.42175C28.1314 5.58858 29.1759 4.54887 30 3.36543C28.8972 3.83567 27.7102 4.15181 26.4654 4.29483C27.7361 3.56387 28.7117 2.40805 29.1719 1.03021C27.9826 1.70629 26.6656 2.19747 25.2635 2.46276C24.1404 1.31556 22.5411 0.598145 20.7705 0.598145C17.3717 0.598145 14.6152 3.24122 14.6152 6.49933C14.6152 6.96272 14.6693 7.41308 14.7748 7.84515C9.65931 7.59833 5.12301 5.24992 2.08762 1.67867C1.55925 2.55072 1.25433 3.56404 1.25433 4.64527C1.25433 6.69267 2.34098 8.50064 3.99325 9.55794C2.98347 9.52821 2.03497 9.26239 1.20572 8.81994C1.2048 8.84475 1.2048 8.86885 1.2048 8.89524C1.2048 11.7536 3.32636 14.1402 6.14306 14.681C5.6257 14.816 5.08137 14.8886 4.51997 14.8886C4.12406 14.8886 3.73805 14.8513 3.36305 14.7822C4.14662 17.1272 6.41899 18.8337 9.11296 18.8816C7.00626 20.4649 4.35247 21.408 1.46825 21.408C0.972169 21.408 0.481773 21.3807 0 21.3262C2.72405 23.0005 5.95868 23.9775 9.43493 23.9775" fill="#008EE8"/>
	</symbol>

	<symbol id="instagram" viewBox="0 0 28 28" fill="none" xmlns="http://www.w3.org/2000/svg">
		<path d="M19.6586 0.459961H8.34135C3.74191 0.459961 0 4.1051 0 8.58559V19.6102C0 24.0907 3.74191 27.7358 8.34135 27.7358H19.6586C24.2581 27.7358 28 24.0907 28 19.6102V8.58559C28 4.1051 24.258 0.459961 19.6586 0.459961ZM25.1832 19.6102C25.1832 22.5824 22.7097 24.9919 19.6586 24.9919H8.34135C5.29025 24.9919 2.8168 22.5824 2.8168 19.6102V8.58559C2.8168 5.61335 5.29025 3.20391 8.34135 3.20391H19.6586C22.7097 3.20391 25.1832 5.61335 25.1832 8.58559V19.6102Z" fill="url(#paint0_linear_320_57)"/>
		<path d="M13.9993 7.04248C10.0061 7.04248 6.75745 10.2072 6.75745 14.0971C6.75745 17.9871 10.0061 21.1519 13.9993 21.1519C17.9924 21.1519 21.2411 17.9871 21.2411 14.0971C21.2411 10.2072 17.9924 7.04248 13.9993 7.04248ZM13.9993 18.4079C11.5554 18.4079 9.57426 16.4779 9.57426 14.0972C9.57426 11.7164 11.5554 9.78651 13.9993 9.78651C16.4432 9.78651 18.4243 11.7164 18.4243 14.0972C18.4243 16.4779 16.4431 18.4079 13.9993 18.4079Z" fill="url(#paint1_linear_320_57)"/>
		<path d="M21.2562 8.78613C22.2145 8.78613 22.9915 8.0293 22.9915 7.0957C22.9915 6.1621 22.2145 5.40527 21.2562 5.40527C20.2978 5.40527 19.5209 6.1621 19.5209 7.0957C19.5209 8.0293 20.2978 8.78613 21.2562 8.78613Z" fill="url(#paint2_linear_320_57)"/>
		<defs>
		<linearGradient id="paint0_linear_320_57" x1="14" y1="27.6564" x2="14" y2="0.671817" gradientUnits="userSpaceOnUse">
		<stop stop-color="#E09B3D"/>
		<stop offset="0.3" stop-color="#C74C4D"/>
		<stop offset="0.6" stop-color="#C21975"/>
		<stop offset="1" stop-color="#7024C4"/>
		</linearGradient>
		<linearGradient id="paint1_linear_320_57" x1="13.9993" y1="27.6561" x2="13.9993" y2="0.670731" gradientUnits="userSpaceOnUse">
		<stop stop-color="#E09B3D"/>
		<stop offset="0.3" stop-color="#C74C4D"/>
		<stop offset="0.6" stop-color="#C21975"/>
		<stop offset="1" stop-color="#7024C4"/>
		</linearGradient>
		<linearGradient id="paint2_linear_320_57" x1="21.2562" y1="27.6561" x2="21.2562" y2="0.671081" gradientUnits="userSpaceOnUse">
		<stop stop-color="#E09B3D"/>
		<stop offset="0.3" stop-color="#C74C4D"/>
		<stop offset="0.6" stop-color="#C21975"/>
		<stop offset="1" stop-color="#7024C4"/>
		</linearGradient>
		</defs>
	</symbol>


</svg>





