<svg width="374" height="391" viewBox="0 0 374 391" fill="none" xmlns="http://www.w3.org/2000/svg">
<path d="M371.715 140.301C374.397 150.148 374.722 160.419 372.668 170.394C370.613 180.369 366.229 189.807 359.822 198.044C350.256 210.115 336.62 219.141 328.127 231.853C309.772 259.296 319.625 296.77 302.789 325.04C288.716 348.689 259.562 360.307 232.491 370.279C211.234 378.103 189.764 385.976 167.231 389.129C144.698 392.283 120.465 390.282 100.94 379.414C84.8379 370.476 73.0082 356.306 62.082 342.156C35.2234 307.343 10.9476 269.435 2.69975 227.32C-5.54807 185.205 4.74045 137.966 38.5608 108.828C55.0245 94.6386 76.5901 84.8538 88.2072 67.0085C100.398 48.2863 100.568 22.1639 119.519 9.11745C126.513 4.29894 135.207 2.06213 143.837 0.997918C164.615 -1.48161 185.703 2.27934 204.006 11.7287C222.574 21.3756 237.816 36.7081 258.042 42.8766C284.221 50.868 317.818 44.7291 335.217 68.3782C349.193 87.3961 365.508 118.15 371.715 140.301Z" fill="#F2F5F9"/>
</svg>
